<?xml version="1.0" encoding="UTF-8" standalone="no"?>
<svg
   xmlns:dc="http://purl.org/dc/elements/1.1/"
   xmlns:cc="http://creativecommons.org/ns#"
   xmlns:rdf="http://www.w3.org/1999/02/22-rdf-syntax-ns#"
   xmlns:svg="http://www.w3.org/2000/svg"
   xmlns="http://www.w3.org/2000/svg"
   xmlns:sodipodi="http://sodipodi.sourceforge.net/DTD/sodipodi-0.dtd"
   xmlns:inkscape="http://www.inkscape.org/namespaces/inkscape"
   enable-background="new 0 0 96 96"
   height="96px"
   id="arrow_down"
   version="1.1"
   viewBox="0 0 96 96"
   width="96px"
   xml:space="preserve"
   sodipodi:docname="cross.svg"
   inkscape:version="0.92.2 (30a58d1, 2017-08-07)"><metadata
     id="metadata3761"><rdf:RDF><cc:Work
         rdf:about=""><dc:format>image/svg+xml</dc:format><dc:type
           rdf:resource="http://purl.org/dc/dcmitype/StillImage" /><dc:title></dc:title></cc:Work></rdf:RDF></metadata><defs
     id="defs3759" /><sodipodi:namedview
     pagecolor="#ffffff"
     bordercolor="#666666"
     borderopacity="1"
     objecttolerance="10"
     gridtolerance="10"
     guidetolerance="10"
     inkscape:pageopacity="0"
     inkscape:pageshadow="2"
     inkscape:window-width="1366"
     inkscape:window-height="719"
     id="namedview3757"
     showgrid="false"
     showguides="true"
     inkscape:guide-bbox="true"
     inkscape:zoom="2.8385417"
     inkscape:cx="-37.57607"
     inkscape:cy="35.595619"
     inkscape:window-x="0"
     inkscape:window-y="25"
     inkscape:window-maximized="1"
     inkscape:current-layer="arrow_down"><sodipodi:guide
       position="69.577982,42.275229"
       orientation="1,0"
       id="guide3766"
       inkscape:locked="false" /><sodipodi:guide
       position="49.181017,28.879512"
       orientation="1,0"
       id="guide3771"
       inkscape:locked="false" /></sodipodi:namedview><g
     id="g3782"
     transform="translate(5.6366972,3.8752294)"><path
       inkscape:connector-curvature="0"
       id="path3754"
       d="m 16.315672,12.67662 c -1.561999,1.561999 -1.591002,4.261964 -0.029,5.823963 8.451376,8.479464 17.159528,17.118571 25.888119,25.805256 0.03368,0.03352 0.06714,0.0673 0.100817,0.100817 0.03352,0.03368 0.0673,0.06714 0.100818,0.100818 8.686917,8.728357 17.325793,17.436742 25.805255,25.888118 1.561999,1.561999 4.261964,1.532996 5.823963,-0.029 1.543047,-1.543046 1.55532,-4.030049 0.04972,-5.596087 l 10e-7,-0.01105 -0.04972,-0.04972 L 61.067797,51.771891 34.910371,25.614464 21.972526,12.67662 l -0.04972,-0.04972 -0.01105,1e-6 c -1.56603,-1.505735 -4.052996,-1.493374 -5.596087,0.04972 z" /><path
       d="m 16.297826,70.366557 c 1.561999,1.561999 4.261964,1.591002 5.823963,0.029 8.479464,-8.451376 17.118571,-17.159528 25.805256,-25.888119 0.03352,-0.03368 0.0673,-0.06714 0.100817,-0.100817 0.03368,-0.03352 0.06714,-0.0673 0.100818,-0.100818 8.728357,-8.686917 17.436742,-17.325793 25.888118,-25.805255 1.561999,-1.561999 1.532996,-4.261964 -0.029,-5.823963 -1.543046,-1.543047 -4.030049,-1.55532 -5.596087,-0.04972 l -0.01105,-1e-6 -0.04972,0.04972 -12.937844,12.937848 -26.157427,26.157426 -12.937844,12.937845 -0.04972,0.04972 1e-6,0.01105 c -1.505735,1.56603 -1.493374,4.052996 0.04972,5.596087 z"
       id="path3778"
       inkscape:connector-curvature="0" /></g></svg>